<svg id="visual" viewBox="0 0 900 600" width="900" height="600" xmlns="http://www.w3.org/2000/svg" xmlns:xlink="http://www.w3.org/1999/xlink" version="1.1"><rect x="0" y="0" width="900" height="600" fill="#fff"></rect><path d="M0 489L21.5 486.8C43 484.7 86 480.3 128.8 487.3C171.7 494.3 214.3 512.7 257.2 514.5C300 516.3 343 501.7 385.8 493.5C428.7 485.3 471.3 483.7 514.2 491.5C557 499.3 600 516.7 642.8 518.3C685.7 520 728.3 506 771.2 495C814 484 857 476 878.5 472L900 468L900 601L878.5 601C857 601 814 601 771.2 601C728.3 601 685.7 601 642.8 601C600 601 557 601 514.2 601C471.3 601 428.7 601 385.8 601C343 601 300 601 257.2 601C214.3 601 171.7 601 128.8 601C86 601 43 601 21.5 601L0 601Z" fill="#efcead" stroke-linecap="round" stroke-linejoin="miter"></path></svg>